<svg xmlns="http://www.w3.org/2000/svg" width="77" height="84" viewBox="0 0 77 84">
    <g fill="none" fill-rule="evenodd">
        <path fill="#E77918" d="M30.155 19.563c.016 5.19.015 10.379.008 15.569m.154 3.328c8.003.005 17.334.057 25.338.057 5.64 0 11.28-.014 16.922.008 2.631.01 3.415.792 3.414 3.308-.002 4.35-.019 8.7-.029 13.051-.302.032-.605.093-.907.093-24.31.014-48.62.026-72.93.022-.674 0-1.35-.171-2.023-.263C.069 45.115.027 35.494.009 25.873-.007 17.249.004 8.625.003 0H76c-.013 4.914-.01 9.828-.05 14.742-.01.967-.66 1.531-1.565 1.695-.592.108-1.215.056-1.825.056-13.644.002-27.288.015-40.933-.018-1.31-.003-1.42.09-1.42.09"/>
        <path fill="#3EB3C4" d="M75.143 68.073c-.316.402-.792.716-.768 1.308.175 4.366-1.671 8.43-1.93 12.733-.05.841-.69.873-1.3.873-8.847.007-17.695-.004-26.543.013-1.16.003-1.216-.736-1.41-1.59-.635-2.82-.392-5.763-1.268-8.54-.056-.523-.11-1.048-.164-1.571.132-3.436-1.098-6.698-1.304-10.09.213-1.054-.099-2.067-.336-3.058-.381-1.589.13-2.154 1.78-2.116 3.676.085 7.354.035 11.03.04.025 2.517.631 4.948 1.065 7.407.49 2.786.773 5.621 1.865 8.262.48 1.162.474 3.138 2.125 2.975 1.44-.141 1.461-2.019 1.845-3.262 1.547-5.015 1.814-10.233 2.458-15.392L76.812 56c.415.694-.006 1.437.128 2.148-.707 3.165-1.825 6.254-1.753 9.559a.37.37 0 0 0-.044.366"/>
        <path fill="#9CB069" d="M38.572 56.184c.235.987.573 5.058.361 6.108-.343.2-.043-.08.017.304.367 2.363-1.652 3.055-3.425 2.985-2.312-.093-4.63.008-6.944-.044-1.23-.028-1.764.428-1.745 1.691.074 4.984.096 9.968.138 14.952l-.176 1.757c-4.33.013-8.662-.015-12.99.062-1.366.024-1.801-.42-1.782-1.793.07-4.986-.024-9.974.05-14.96.022-1.525-.408-2.079-2.016-2.046-3.351.067-6.707-.083-10.06-.145.005-3.019.01-6.039.017-9.055.66.092 1.32.26 1.98.26"/>
    </g>
</svg>
