<?xml version="1.0" encoding="UTF-8" standalone="no"?>
<svg
   xmlns:dc="http://purl.org/dc/elements/1.1/"
   xmlns:cc="http://creativecommons.org/ns#"
   xmlns:rdf="http://www.w3.org/1999/02/22-rdf-syntax-ns#"
   xmlns:svg="http://www.w3.org/2000/svg"
   xmlns="http://www.w3.org/2000/svg"
   xmlns:sodipodi="http://sodipodi.sourceforge.net/DTD/sodipodi-0.dtd"
   xmlns:inkscape="http://www.inkscape.org/namespaces/inkscape"
   width="110.56446"
   height="39.982185"
   viewBox="0 0 110.56446 39.982185"
   version="1.1"
   id="svg18"
   sodipodi:docname="logo.svg"
   inkscape:version="0.92.1 r15371">
  <metadata
     id="metadata24">
    <rdf:RDF>
      <cc:Work
         rdf:about="">
        <dc:format>image/svg+xml</dc:format>
        <dc:type
           rdf:resource="http://purl.org/dc/dcmitype/StillImage" />
        <dc:title></dc:title>
      </cc:Work>
    </rdf:RDF>
  </metadata>
  <defs
     id="defs22" />
  <sodipodi:namedview
     pagecolor="#ffffff"
     bordercolor="#666666"
     borderopacity="1"
     objecttolerance="10"
     gridtolerance="10"
     guidetolerance="10"
     inkscape:pageopacity="0"
     inkscape:pageshadow="2"
     inkscape:window-width="1366"
     inkscape:window-height="748"
     id="namedview20"
     showgrid="false"
     fit-margin-top="0"
     fit-margin-left="0"
     fit-margin-right="0"
     fit-margin-bottom="0"
     inkscape:zoom="2.4705882"
     inkscape:cx="31.166677"
     inkscape:cy="30.910757"
     inkscape:window-x="0"
     inkscape:window-y="0"
     inkscape:window-maximized="1"
     inkscape:current-layer="svg18" />
  <g
     id="g16"
     style="fill:none;fill-rule:evenodd"
     transform="translate(1.0348703e-5)">
    <path
       d="m 32.198,0 c 1.414,0 2.453,1.353 2.316,3.02 -0.136,1.668 -1.395,3.021 -2.81,3.021 -1.415,0 -2.453,-1.353 -2.317,-3.02 C 29.523,1.353 30.782,0 32.197,0 M 20.281,4.647 c 2.775,2.531 5.914,4.106 5.914,10.021 0,3.156 0.022,7.63 -0.418,11.588 -0.406,3.66 0.294,4.45 2.295,0.636 l 2.15,-4.097 c 0.615,-1.173 1.237,-0.916 1.643,0.208 l 1.673,4.633 c 1.282,3.554 2.681,3.532 2.703,0.702 0.034,-4.238 -0.21,-7.77 -0.453,-11.335 -1.498,0.576 -4.607,0.879 -4.92,0.028 -0.508,-1.387 2.074,-2.175 3.121,-3.026 0.79,-0.64 1.458,-1.475 1.458,-2.508 l 0.012,0.007 -0.012,-0.281 C 35.267,9.689 34.111,8.219 32.237,7.433 L 21.352,2.87 c -2.796,-1.172 -3.62,-0.55 -1.07,1.778"
       id="path2"
       inkscape:connector-curvature="0"
       style="fill:#e77918" />
    <path
       d="M 3.996,0 C 2.58,0 1.542,1.353 1.679,3.02 1.815,4.688 3.074,6.041 4.489,6.041 5.905,6.041 6.942,4.688 6.806,3.021 6.67,1.353 5.411,0 3.996,0 m 11.967,4.647 c -2.775,2.531 -5.913,4.106 -5.913,10.021 0,3.156 -0.023,7.63 0.417,11.588 0.407,3.66 -0.294,4.45 -2.295,0.636 L 6.022,22.795 C 5.407,21.622 4.785,21.879 4.38,23.003 L 2.707,27.636 C 1.424,31.19 0.025,31.168 0.003,28.338 -0.03,24.1 0.214,20.568 0.456,17.003 1.954,17.579 5.063,17.882 5.376,17.031 5.885,15.644 3.303,14.856 2.255,14.005 1.465,13.365 0.798,12.53 0.798,11.497 L 0.785,11.504 0.798,11.223 C 0.978,9.689 2.134,8.219 4.008,7.433 L 14.892,2.87 c 2.796,-1.172 3.62,-0.55 1.07,1.778"
       id="path4"
       inkscape:connector-curvature="0"
       style="fill:#3eb3c4" />
    <path
       d="m 18.06,16.954 a 3.894,3.894 0 1 0 0,-7.788 3.894,3.894 0 0 0 0,7.788"
       id="path6"
       inkscape:connector-curvature="0"
       style="fill:#9cb069" />
    <path
       d="m 18.006,19.493 c 3.97,0 7.63,-2.222 10.556,-3.025 5.435,-1.492 3.631,1.263 0.612,3.233 -4.885,3.187 -6.205,4.722 -4.07,16.712 0.805,4.527 -1.196,4.543 -2.962,1.2 l -2.47,-4.474 c -0.55,-0.996 -0.748,-1.617 -1.666,-1.617 -0.918,0 -1.117,0.62 -1.666,1.617 l -2.47,4.475 c -1.766,3.342 -3.767,3.326 -2.961,-1.2 2.134,-11.99 0.815,-13.526 -4.07,-16.713 -3.02,-1.97 -4.824,-4.726 0.611,-3.233 2.926,0.803 6.586,3.025 10.556,3.025"
       id="path8"
       inkscape:connector-curvature="0"
       style="fill:#9cb069" />
    <text
       font-size="18"
       font-weight="bold"
       id="text14"
       style="font-weight:bold;font-size:18px;font-family:CenturyGothic-Bold, 'Century Gothic';fill:#4a4a4a">
      <tspan
         x="46"
         y="19"
         id="tspan10">Action</tspan>
      <tspan
         x="46"
         y="35"
         id="tspan12">Takers</tspan>
    </text>
  </g>
</svg>
