<?xml version="1.0" encoding="UTF-8" standalone="no"?>
<!-- Generator: Adobe Illustrator 16.0.4, SVG Export Plug-In . SVG Version: 6.00 Build 0)  -->

<svg
   xmlns:dc="http://purl.org/dc/elements/1.1/"
   xmlns:cc="http://creativecommons.org/ns#"
   xmlns:rdf="http://www.w3.org/1999/02/22-rdf-syntax-ns#"
   xmlns:svg="http://www.w3.org/2000/svg"
   xmlns="http://www.w3.org/2000/svg"
   xmlns:sodipodi="http://sodipodi.sourceforge.net/DTD/sodipodi-0.dtd"
   xmlns:inkscape="http://www.inkscape.org/namespaces/inkscape"
   version="1.1"
   id="Layer_1"
   x="0px"
   y="0px"
   width="184"
   height="184"
   viewBox="0 0 184 184"
   enable-background="new 0 0 184 115"
   xml:space="preserve"
   inkscape:version="0.92.1 r15371"
   sodipodi:docname="mavc.svg"><metadata
     id="metadata57"><rdf:RDF><cc:Work
         rdf:about=""><dc:format>image/svg+xml</dc:format><dc:type
           rdf:resource="http://purl.org/dc/dcmitype/StillImage" /><dc:title /></cc:Work></rdf:RDF></metadata><defs
     id="defs55" /><sodipodi:namedview
     pagecolor="#ffffff"
     bordercolor="#666666"
     borderopacity="1"
     objecttolerance="10"
     gridtolerance="10"
     guidetolerance="10"
     inkscape:pageopacity="0"
     inkscape:pageshadow="2"
     inkscape:window-width="1920"
     inkscape:window-height="1060"
     id="namedview53"
     showgrid="false"
     inkscape:zoom="3.1630434"
     inkscape:cx="170.41745"
     inkscape:cy="65.156842"
     inkscape:window-x="0"
     inkscape:window-y="0"
     inkscape:window-maximized="1"
     inkscape:current-layer="Layer_1" /><g
     id="g3"
     transform="translate(0,34)"><path
       d="m 10.391,104.745 1.463,0 0,-4.762 3.987,0 0,-1.303 -3.987,0 0,-2.853 3.987,0 0,-1.302 -5.45,0 0,10.22 0,0 z m 8.082,-8.866 c -1.034,0.999 -1.55,2.264 -1.55,3.789 0,1.488 0.513,2.725 1.539,3.713 1.026,0.987 2.309,1.481 3.849,1.481 1.613,0 2.95,-0.494 4.01,-1.481 1.06,-0.988 1.59,-2.234 1.59,-3.742 0,-1.507 -0.525,-2.761 -1.575,-3.76 -1.05,-1 -2.365,-1.5 -3.944,-1.5 -1.579,0 -2.886,0.5 -3.919,1.5 l 0,0 z m 6.787,0.998 c 0.763,0.739 1.144,1.65 1.144,2.733 0,1.111 -0.381,2.041 -1.144,2.787 -0.763,0.745 -1.714,1.118 -2.854,1.118 -1.135,0 -2.081,-0.365 -2.836,-1.097 -0.755,-0.732 -1.133,-1.648 -1.133,-2.751 0,-1.136 0.376,-2.07 1.129,-2.802 0.752,-0.731 1.714,-1.097 2.883,-1.097 1.112,0.002 2.049,0.37 2.811,1.109 l 0,0 z m 5.928,7.868 0,-4.448 0.381,0 c 0.479,0 0.819,0.056 1.022,0.165 0.203,0.109 0.43,0.288 0.681,0.536 0.251,0.249 0.528,0.583 0.83,1.002 l 0.49,0.798 0.453,0.747 0.285,0.402 c 0.043,0.059 0.073,0.1 0.087,0.125 l 0.446,0.673 1.741,0 -0.542,-0.731 c -0.214,-0.293 -0.5,-0.729 -0.856,-1.31 -0.566,-0.922 -1.004,-1.568 -1.317,-1.939 -0.312,-0.369 -0.631,-0.662 -0.958,-0.877 0.556,-0.215 0.982,-0.539 1.28,-0.973 0.297,-0.434 0.446,-0.949 0.446,-1.544 0,-0.873 -0.304,-1.566 -0.911,-2.078 -0.607,-0.512 -1.428,-0.768 -2.461,-0.768 l -2.561,0 0,10.22 1.464,0 0,0 z m 1.979,-8.815 c 0.31,0.107 0.55,0.291 0.721,0.553 0.17,0.261 0.256,0.552 0.256,0.874 0,0.326 -0.077,0.617 -0.23,0.875 -0.153,0.256 -0.368,0.446 -0.644,0.573 -0.276,0.127 -0.784,0.19 -1.525,0.19 l -0.556,0 0,-3.225 0.439,0 c 0.716,0 1.229,0.053 1.539,0.16 l 0,0 z m 12.915,8.801 c 0.907,0 1.521,-0.026 1.844,-0.077 0.322,-0.051 0.675,-0.153 1.061,-0.305 0.659,-0.248 1.236,-0.616 1.734,-1.104 0.488,-0.473 0.863,-1.021 1.126,-1.646 0.264,-0.624 0.395,-1.276 0.395,-1.96 0,-0.956 -0.239,-1.839 -0.717,-2.647 -0.478,-0.811 -1.122,-1.423 -1.931,-1.84 -0.81,-0.417 -1.91,-0.626 -3.3,-0.626 l -3.445,0 0,10.206 3.233,0 0,-0.001 z m 1.587,-8.823 c 0.317,0.054 0.652,0.163 1.006,0.329 0.354,0.166 0.667,0.378 0.94,0.636 0.741,0.693 1.112,1.588 1.112,2.685 0,1.117 -0.361,2.041 -1.083,2.773 -0.225,0.224 -0.472,0.413 -0.743,0.567 -0.271,0.153 -0.608,0.279 -1.013,0.38 -0.405,0.1 -0.973,0.149 -1.705,0.149 l -1.873,0 0,-7.601 1.829,0 c 0.703,0.001 1.213,0.028 1.53,0.082 l 0,0 z m 6.372,8.823 5.933,0 0,-1.304 -4.47,0 0,-3.175 4.185,0 0,-1.309 -4.185,0 0,-3.117 4.331,0 0,-1.302 -5.794,0 0,10.207 0,0 z m 10.881,-3.029 -3.074,-7.177 -1.473,0 4.405,10.264 0.332,0 4.321,-10.264 -1.457,0 -3.054,7.177 0,0 z m 5.599,3.029 5.933,0 0,-1.304 -4.47,0 0,-3.175 4.185,0 0,-1.309 -4.185,0 0,-3.117 4.331,0 0,-1.302 -5.794,0 0,10.207 0,0 z m 7.461,0.014 6.065,0 0,-1.331 -4.602,0 0,-8.889 -1.463,0 0,10.22 0,0 z m 8.412,-8.866 c -1.033,0.999 -1.55,2.264 -1.55,3.789 0,1.488 0.513,2.725 1.539,3.713 1.026,0.987 2.309,1.481 3.849,1.481 1.613,0 2.95,-0.494 4.01,-1.481 1.061,-0.988 1.59,-2.234 1.59,-3.742 0,-1.507 -0.524,-2.761 -1.575,-3.76 -1.051,-1 -2.365,-1.5 -3.944,-1.5 -1.579,0 -2.886,0.5 -3.919,1.5 l 0,0 z m 6.788,0.998 c 0.763,0.739 1.144,1.65 1.144,2.733 0,1.111 -0.381,2.041 -1.144,2.787 -0.763,0.745 -1.714,1.118 -2.854,1.118 -1.135,0 -2.081,-0.365 -2.836,-1.097 -0.755,-0.732 -1.133,-1.648 -1.133,-2.751 0,-1.136 0.376,-2.07 1.129,-2.802 0.753,-0.732 1.714,-1.097 2.883,-1.097 1.111,0.002 2.048,0.37 2.811,1.109 l 0,0 z m 5.81,7.868 0,-4.433 1.083,0 c 0.966,0 1.707,-0.104 2.224,-0.312 0.518,-0.207 0.924,-0.54 1.222,-0.999 0.298,-0.458 0.446,-0.984 0.446,-1.58 0,-0.887 -0.29,-1.595 -0.871,-2.121 -0.58,-0.526 -1.357,-0.791 -2.333,-0.791 l -3.241,0 0,10.235 1.47,0 0,0.001 z m 3.461,-7.359 c 0,0.521 -0.161,0.923 -0.483,1.203 -0.322,0.281 -0.781,0.421 -1.376,0.421 l -1.602,0 0,-3.196 1.515,0 c 1.297,-10e-4 1.946,0.523 1.946,1.572 l 0,0 0,0 z m 7.509,1.337 -3.396,-4.197 -1.386,0 0,10.22 1.463,0 0,-7.952 3.179,3.95 0.271,0 3.143,-3.95 0,7.952 1.471,0 0,-10.22 -1.368,0 -3.377,4.197 0,0 z m 6.916,6.008 5.933,0 0,-1.304 -4.47,0 0,-3.175 4.186,0 0,-1.309 -4.186,0 0,-3.117 4.331,0 0,-1.302 -5.794,0 0,10.207 0,0 z m 15.582,-2.268 -6.892,-7.938 -1.186,0 0,10.22 1.375,0 0,-7.871 6.833,7.871 1.259,0 0,-10.22 -1.39,0 0,7.938 0.001,0 z m 2.676,-6.65 3.505,0 0,8.932 1.471,0 0,-8.932 3.562,0 0,-1.303 -8.538,0 0,1.303 0,0 z"
       id="path7"
       inkscape:connector-curvature="0"
       style="fill:#da2128" /><path
       d="m 9.25,89.763 1.503,0 1.277,-3.028 4.36,0 1.362,3.028 1.498,0 -4.583,-10.278 -1.028,0 -4.389,10.278 0,0 z m 3.361,-4.331 1.529,-3.701 1.649,3.701 -3.178,0 0,0 z m 17.385,0.6 1.968,0 0,2.128 -0.139,0.044 c -0.815,0.269 -1.515,0.403 -2.1,0.403 -1.205,0 -2.19,-0.369 -2.956,-1.105 -0.766,-0.736 -1.149,-1.685 -1.149,-2.846 0,-1.107 0.383,-2.041 1.149,-2.802 0.766,-0.762 1.707,-1.142 2.824,-1.142 1.2,0 2.409,0.354 3.628,1.062 l 0,-1.493 c -0.79,-0.331 -1.443,-0.56 -1.96,-0.685 -0.517,-0.124 -1.063,-0.186 -1.639,-0.186 -1.58,0 -2.895,0.507 -3.943,1.521 -1.048,1.016 -1.573,2.285 -1.573,3.812 0,1.448 0.506,2.667 1.518,3.654 1.012,0.987 2.364,1.481 4.057,1.481 1.239,0 2.487,-0.272 3.746,-0.819 l 0,-4.331 -3.431,0 0,1.304 0,0 z m 7.044,3.731 0,-4.447 0.381,0 c 0.479,0 0.819,0.054 1.021,0.164 0.203,0.108 0.43,0.288 0.682,0.536 0.251,0.248 0.528,0.582 0.83,1.002 l 0.489,0.799 0.453,0.746 0.285,0.402 c 0.044,0.059 0.073,0.101 0.088,0.124 l 0.446,0.674 1.741,0 -0.542,-0.731 c -0.215,-0.293 -0.5,-0.729 -0.856,-1.311 -0.566,-0.921 -1.005,-1.567 -1.317,-1.938 -0.312,-0.371 -0.632,-0.663 -0.958,-0.878 0.556,-0.215 0.983,-0.539 1.28,-0.974 0.297,-0.434 0.446,-0.948 0.446,-1.544 0,-0.873 -0.304,-1.564 -0.911,-2.076 -0.607,-0.514 -1.428,-0.77 -2.462,-0.77 l -2.561,0 0,10.221 1.465,0 0,0.001 z m 1.979,-8.816 c 0.31,0.106 0.55,0.292 0.72,0.552 0.171,0.261 0.256,0.553 0.256,0.875 0,0.326 -0.077,0.618 -0.23,0.874 -0.153,0.256 -0.368,0.447 -0.644,0.574 -0.276,0.127 -0.784,0.189 -1.525,0.189 l -0.556,0 0,-3.226 0.439,0 c 0.717,0.001 1.23,0.055 1.54,0.162 l 0,0 z m 4.407,8.816 1.504,0 1.277,-3.028 4.36,0 1.362,3.028 1.498,0 -4.583,-10.278 -1.028,0 -4.39,10.278 0,0 z m 3.361,-4.331 1.529,-3.701 1.649,3.701 -3.178,0 0,0 z m 15.849,2.048 -6.891,-7.938 -1.185,0 0,10.221 1.375,0 0,-7.872 6.833,7.872 1.258,0 0,-10.221 -1.39,0 0,7.938 0,0 z m 6.796,2.268 c 0.907,0 1.521,-0.026 1.843,-0.077 0.322,-0.051 0.676,-0.151 1.061,-0.304 0.658,-0.248 1.236,-0.616 1.734,-1.104 0.487,-0.473 0.863,-1.021 1.126,-1.646 0.263,-0.625 0.395,-1.278 0.395,-1.961 0,-0.956 -0.239,-1.839 -0.717,-2.648 -0.478,-0.809 -1.122,-1.423 -1.932,-1.84 -0.81,-0.417 -1.909,-0.626 -3.299,-0.626 l -3.446,0 0,10.206 3.235,0 0,0 z m 1.588,-8.823 c 0.317,0.055 0.652,0.164 1.006,0.329 0.354,0.166 0.667,0.378 0.94,0.637 0.741,0.692 1.112,1.588 1.112,2.686 0,1.117 -0.361,2.041 -1.083,2.771 -0.224,0.226 -0.472,0.414 -0.742,0.567 -0.271,0.154 -0.609,0.281 -1.014,0.381 -0.405,0.101 -0.973,0.15 -1.704,0.15 l -1.873,0 0,-7.602 1.829,0 c 0.702,0.001 1.212,0.028 1.529,0.081 l 0,0 z m 15.683,7.609 c -1.185,0 -2.158,-0.361 -2.919,-1.083 -0.761,-0.722 -1.141,-1.645 -1.141,-2.766 0,-1.112 0.386,-2.037 1.159,-2.776 0.773,-0.739 1.745,-1.108 2.916,-1.108 1.141,0 2.309,0.342 3.504,1.024 l 0,-1.573 c -1.312,-0.561 -2.505,-0.841 -3.578,-0.841 -1.556,0 -2.864,0.507 -3.925,1.521 -1.061,1.016 -1.591,2.267 -1.591,3.754 0,0.937 0.231,1.807 0.695,2.611 0.463,0.806 1.093,1.438 1.888,1.896 0.795,0.458 1.763,0.688 2.904,0.688 1.405,0 2.644,-0.293 3.716,-0.878 l 0,-1.61 c -1.18,0.76 -2.389,1.141 -3.628,1.141 l 0,0 0,0 z m 12.605,-4.573 -5.743,0 0,-4.419 -1.463,0 0,10.221 1.463,0 0,-4.447 5.743,0 0,4.447 1.463,0 0,-10.221 -1.463,0 0,4.419 0,0 z m 2.559,5.802 1.504,0 1.276,-3.028 4.36,0 1.362,3.028 1.498,0 -4.583,-10.278 -1.028,0 -4.389,10.278 0,0 z m 3.362,-4.331 1.529,-3.701 1.649,3.701 -3.178,0 0,0 z m 7.728,4.331 6.065,0 0,-1.332 -4.603,0 0,-8.889 -1.463,0 0,10.221 10e-4,0 z m 7.315,0 6.064,0 0,-1.332 -4.602,0 0,-8.889 -1.463,0 0,10.221 0.001,0 z m 7.315,-0.015 5.933,0 0,-1.302 -4.47,0 0,-3.175 4.186,0 0,-1.311 -4.186,0 0,-3.116 4.331,0 0,-1.303 -5.794,0 0,10.207 0,0 z m 15.582,-2.268 -6.891,-7.938 -1.186,0 0,10.221 1.375,0 0,-7.872 6.833,7.872 1.258,0 0,-10.221 -1.39,0 0,7.938 0.001,0 z m 9.071,-1.448 1.968,0 0,2.128 -0.139,0.044 c -0.815,0.269 -1.515,0.403 -2.101,0.403 -1.204,0 -2.189,-0.369 -2.955,-1.105 -0.766,-0.736 -1.148,-1.685 -1.148,-2.846 0,-1.107 0.383,-2.041 1.148,-2.802 0.766,-0.762 1.707,-1.142 2.824,-1.142 1.199,0 2.409,0.354 3.628,1.062 l 0,-1.493 c -0.79,-0.331 -1.443,-0.56 -1.96,-0.685 -0.517,-0.124 -1.063,-0.186 -1.639,-0.186 -1.58,0 -2.896,0.507 -3.943,1.521 -1.049,1.016 -1.573,2.285 -1.573,3.812 0,1.448 0.506,2.667 1.519,3.654 1.012,0.987 2.364,1.481 4.056,1.481 1.239,0 2.488,-0.272 3.746,-0.819 l 0,-4.331 -3.431,0 0,1.304 0,0 z m 5.537,3.716 5.933,0 0,-1.302 -4.47,0 0,-3.175 4.185,0 0,-1.311 -4.185,0 0,-3.116 4.331,0 0,-1.303 -5.794,0 0,10.207 0,0 z"
       id="path9"
       inkscape:connector-curvature="0"
       style="fill:#da2128" /><polygon
       points="184,0 0,0 0,0 0,70 184,70 "
       id="polygon11" /><polygon
       points="17.967,26.113 23.976,18.576 25.213,18.576 25.213,34.805 23.979,34.805 23.979,20.411 17.962,27.998 11.922,20.411 11.922,34.805 10.699,34.805 10.699,18.576 11.922,18.576 17.967,26.113 "
       id="polygon13"
       style="fill:#ffffff" /><path
       d="m 35.087,18.459 7.312,16.346 -1.283,0 -2.501,-5.611 -7.735,0 -2.493,5.611 -1.283,0 7.311,-16.346 0.672,0 0,0 z m 3.061,9.689 -3.408,-7.644 -3.396,7.644 6.804,0 0,0 z"
       id="path15"
       inkscape:connector-curvature="0"
       style="fill:#ffffff" /><polygon
       points="47.009,26.682 55.306,34.805 53.75,34.805 45.467,26.696 45.467,34.805 44.245,34.805 44.245,18.576 45.467,18.576 45.467,26.65 53.055,18.576 54.581,18.576 54.581,18.576 "
       id="polygon17"
       style="fill:#ffffff" /><polygon
       points="56.596,18.576 57.819,18.576 57.819,18.576 57.819,34.805 56.596,34.805 "
       id="polygon19"
       style="fill:#ffffff" /><polygon
       points="74.666,34.805 62.642,20.621 62.642,34.805 61.419,34.805 61.419,18.576 62.455,18.576 74.45,32.761 74.45,18.576 75.673,18.576 75.673,18.576 75.673,34.805 "
       id="polygon21"
       style="fill:#ffffff" /><path
       d="m 92.553,19.749 0,1.417 c -1.872,-1.092 -3.739,-1.638 -5.604,-1.638 -2,0 -3.665,0.682 -4.993,2.045 -1.328,1.363 -1.993,3.071 -1.993,5.123 0,2.053 0.657,3.758 1.971,5.117 1.314,1.359 3.098,2.039 5.354,2.039 1.63,0 3.076,-0.333 4.336,-0.999 l 0,-4.38 -3.34,0 0,-1.045 4.574,0 0,6.215 c -1.864,0.914 -3.736,1.371 -5.616,1.371 -2.453,0 -4.5,-0.797 -6.142,-2.393 -1.642,-1.595 -2.463,-3.586 -2.463,-5.971 0,-2.37 0.805,-4.343 2.417,-5.919 1.611,-1.576 3.636,-2.364 6.074,-2.364 1.662,0 3.471,0.46 5.425,1.382 l 0,0 z"
       id="path23"
       inkscape:connector-curvature="0"
       style="fill:#ffffff" /><path
       d="m 107.284,18.459 7.312,16.346 -1.283,0 -2.501,-5.611 -7.734,0 -2.493,5.611 -1.283,0 7.312,-16.346 0.67,0 0,0 z m 3.061,9.689 -3.408,-7.644 -3.396,7.644 6.804,0 0,0 z"
       id="path25"
       inkscape:connector-curvature="0"
       style="fill:#ffffff" /><polygon
       points="117.732,18.576 117.732,18.576 117.732,33.759 125.555,33.759 125.555,34.805 116.509,34.805 116.509,18.576 "
       id="polygon27"
       style="fill:#ffffff" /><polygon
       points="128.612,18.576 128.612,18.576 128.612,33.759 136.435,33.759 136.435,34.805 127.389,34.805 127.389,18.576 "
       id="polygon29"
       style="fill:#ffffff" /><polygon
       points="17.543,55.726 23.107,41.994 24.341,41.994 24.341,41.994 17.714,58.386 17.353,58.386 10.699,41.994 11.938,41.994 "
       id="polygon31"
       style="fill:#ffffff" /><path
       d="m 32.985,41.784 c 2.338,0 4.32,0.808 5.945,2.423 1.625,1.613 2.438,3.583 2.438,5.907 0,2.315 -0.813,4.281 -2.438,5.896 -1.625,1.614 -3.607,2.422 -5.945,2.422 -2.331,0 -4.305,-0.808 -5.923,-2.422 -1.618,-1.614 -2.426,-3.58 -2.426,-5.896 0,-2.324 0.809,-4.294 2.426,-5.907 1.618,-1.615 3.592,-2.423 5.923,-2.423 l 0,0 z m 0.045,15.487 c 1.968,0 3.629,-0.691 4.982,-2.074 1.354,-1.383 2.031,-3.076 2.031,-5.082 0,-2.014 -0.677,-3.712 -2.031,-5.095 -1.354,-1.383 -3.015,-2.073 -4.982,-2.073 -1.977,0 -3.648,0.69 -5.018,2.073 -1.369,1.383 -2.053,3.081 -2.053,5.095 0,2.006 0.685,3.699 2.053,5.082 1.37,1.382 3.042,2.074 5.018,2.074 l 0,0 z"
       id="path33"
       inkscape:connector-curvature="0"
       style="fill:#ffffff" /><polygon
       points="44.334,41.994 45.557,41.994 45.557,41.994 45.557,58.223 44.334,58.223 "
       id="polygon35"
       style="fill:#ffffff" /><path
       d="m 62.323,43.144 0,1.371 c -1.917,-1.046 -3.796,-1.568 -5.638,-1.568 -1.962,0 -3.604,0.685 -4.925,2.056 -1.321,1.371 -1.981,3.083 -1.981,5.135 0,2.076 0.664,3.784 1.992,5.124 1.329,1.34 3.023,2.01 5.083,2.01 1.721,0 3.596,-0.554 5.627,-1.662 l 0,1.302 c -1.872,1.015 -3.74,1.521 -5.604,1.521 -2.408,0 -4.414,-0.792 -6.018,-2.376 -1.604,-1.584 -2.406,-3.557 -2.406,-5.919 0,-2.377 0.818,-4.363 2.457,-5.959 1.638,-1.596 3.589,-2.394 5.854,-2.394 1.782,-10e-4 3.634,0.452 5.559,1.359 l 0,0 z"
       id="path37"
       inkscape:connector-curvature="0"
       style="fill:#ffffff" /><polygon
       points="73.474,41.994 73.474,43.039 66.07,43.039 66.07,49.533 73.282,49.533 73.282,50.59 66.07,50.59 66.07,57.177 73.655,57.177 73.655,58.223 64.847,58.223 64.847,41.994 73.474,41.994 "
       id="polygon39"
       style="fill:#ffffff" /><path
       d="m 83.607,42.807 0,1.383 c -1.374,-0.829 -2.555,-1.243 -3.544,-1.243 -0.951,0 -1.745,0.296 -2.383,0.888 -0.638,0.593 -0.956,1.327 -0.956,2.202 0,0.628 0.188,1.192 0.566,1.696 0.377,0.504 1.166,0.987 2.366,1.452 1.2,0.465 2.076,0.852 2.627,1.162 0.55,0.31 1.019,0.759 1.404,1.348 0.385,0.588 0.578,1.352 0.578,2.288 0,1.247 -0.446,2.301 -1.336,3.16 -0.891,0.859 -1.978,1.289 -3.261,1.289 -1.313,0 -2.665,-0.472 -4.053,-1.417 l 0,-1.476 c 1.532,1.154 2.86,1.731 3.985,1.731 0.936,0 1.726,-0.312 2.372,-0.936 0.645,-0.623 0.968,-1.389 0.968,-2.294 0,-0.69 -0.2,-1.312 -0.6,-1.866 -0.4,-0.554 -1.211,-1.071 -2.434,-1.553 -1.222,-0.48 -2.096,-0.868 -2.62,-1.163 -0.525,-0.294 -0.971,-0.715 -1.336,-1.26 -0.367,-0.546 -0.55,-1.248 -0.55,-2.107 0,-1.191 0.445,-2.208 1.336,-3.048 0.891,-0.84 1.962,-1.26 3.215,-1.26 1.229,10e-4 2.448,0.342 3.656,1.024 l 0,0 z"
       id="path41"
       inkscape:connector-curvature="0"
       style="fill:#ffffff" /><path
       d="m 106.611,43.144 0,1.371 c -1.917,-1.046 -3.798,-1.568 -5.639,-1.568 -1.963,0 -3.604,0.685 -4.925,2.056 -1.321,1.371 -1.981,3.083 -1.981,5.135 0,2.076 0.664,3.784 1.993,5.124 1.327,1.34 3.022,2.01 5.082,2.01 1.722,0 3.598,-0.554 5.627,-1.662 l 0,1.302 c -1.871,1.015 -3.738,1.521 -5.604,1.521 -2.407,0 -4.413,-0.792 -6.018,-2.376 -1.605,-1.584 -2.405,-3.557 -2.405,-5.919 0,-2.377 0.818,-4.363 2.457,-5.959 1.637,-1.596 3.588,-2.394 5.853,-2.394 1.782,-10e-4 3.635,0.452 5.56,1.359 l 0,0 z"
       id="path43"
       inkscape:connector-curvature="0"
       style="fill:#ffffff" /><path
       d="m 116.804,41.784 c 2.34,0 4.321,0.808 5.946,2.423 1.626,1.613 2.438,3.583 2.438,5.907 0,2.315 -0.812,4.281 -2.438,5.896 -1.625,1.614 -3.606,2.422 -5.946,2.422 -2.33,0 -4.304,-0.808 -5.922,-2.422 -1.618,-1.614 -2.427,-3.58 -2.427,-5.896 0,-2.324 0.809,-4.294 2.427,-5.907 1.618,-1.615 3.592,-2.423 5.922,-2.423 l 0,0 z m 0.046,15.487 c 1.97,0 3.629,-0.691 4.984,-2.074 1.353,-1.383 2.03,-3.076 2.03,-5.082 0,-2.014 -0.678,-3.712 -2.03,-5.095 -1.355,-1.383 -3.015,-2.073 -4.984,-2.073 -1.976,0 -3.647,0.69 -5.017,2.073 -1.37,1.383 -2.053,3.081 -2.053,5.095 0,2.006 0.684,3.699 2.053,5.082 1.369,1.383 3.041,2.074 5.017,2.074 l 0,0 z"
       id="path45"
       inkscape:connector-curvature="0"
       style="fill:#ffffff" /><path
       d="m 139.838,41.994 1.223,0 0,8.852 c 0,2.425 -0.615,4.295 -1.845,5.611 -1.23,1.317 -2.823,1.975 -4.778,1.975 -1.947,0 -3.536,-0.65 -4.767,-1.951 -1.23,-1.302 -1.845,-3.082 -1.845,-5.344 l 0,-9.143 1.233,0 0,9.096 c 0,1.937 0.5,3.45 1.5,4.543 1,1.091 2.293,1.638 3.878,1.638 1.601,0 2.899,-0.552 3.899,-1.656 1,-1.104 1.501,-2.669 1.501,-4.699 l 0,-8.922 0.001,0 z"
       id="path47"
       inkscape:connector-curvature="0"
       style="fill:#ffffff" /><polygon
       points="157.568,58.223 145.544,44.037 145.544,58.223 144.322,58.223 144.322,41.994 145.356,41.994 157.352,56.178 157.352,41.994 158.575,41.994 158.575,41.994 158.575,58.223 "
       id="polygon49"
       style="fill:#ffffff" /><polygon
       points="166.386,58.223 166.386,43.039 160.454,43.039 160.454,41.994 173.553,41.994 173.553,41.994 173.553,43.039 167.62,43.039 167.62,58.223 "
       id="polygon51"
       style="fill:#ffffff" /></g></svg>